
#include "pitches.h"
// this files holds the tempo's and melodies of music to be played,
// with the Slot Car Race Controller


int testMelodyNotes[] = {
  NOTE_C4, NOTE_G3,NOTE_G3, NOTE_A3, NOTE_G3, 0, NOTE_B3, NOTE_C4
};
int testMelodyTempo[] = {
  4, 8, 8, 4, 4, 4, 4, 4
};
int testMelodyLength = sizeof(testMelodyNotes)/sizeof(int); 



//Mario main theme melody
int marioMainThemeNotes[] = {
  NOTE_E7, NOTE_E7, 0, NOTE_E7,
  0, NOTE_C7, NOTE_E7, 0,
  NOTE_G7, 0, 0,  0,

  
  NOTE_G6, 0, 0, 0,

  NOTE_C7, 0, 0, NOTE_G6,
  0, 0, NOTE_E6, 0,
  0, NOTE_A6, 0, NOTE_B6,
  0, NOTE_AS6, NOTE_A6, 0,

  NOTE_G6, NOTE_E7, NOTE_G7,
  NOTE_A7, 0, NOTE_F7, NOTE_G7,
  0, NOTE_E7, 0, NOTE_C7,
  NOTE_D7, NOTE_B6, 0, 0,

  NOTE_C7, 0, 0, NOTE_G6,
  0, 0, NOTE_E6, 0,
  0, NOTE_A6, 0, NOTE_B6,
  0, NOTE_AS6, NOTE_A6, 0,

  NOTE_G6, NOTE_E7, NOTE_G7,
  NOTE_A7, 0, NOTE_F7, NOTE_G7,
  0, NOTE_E7, 0, NOTE_C7,
  NOTE_D7, NOTE_B6, 0, 0
};
//Mario main them tempo
int marioMainThemeTempo[] = {
  12, 12, 12, 12,
  12, 12, 12, 12,
  12, 12, 12, 12,
  12, 12, 12, 12,

  12, 12, 12, 12,
  12, 12, 12, 12,
  12, 12, 12, 12,
  12, 12, 12, 12,

  9, 9, 9,
  12, 12, 12, 12,
  12, 12, 12, 12,
  12, 12, 12, 12,

  12, 12, 12, 12,
  12, 12, 12, 12,
  12, 12, 12, 12,
  12, 12, 12, 12,

  9, 9, 9,
  12, 12, 12, 12,
  12, 12, 12, 12,
  12, 12, 12, 12,
};
int marioMainThemeLength = sizeof(marioMainThemeNotes)/sizeof(int); 


//Underworld melody
int marioUnderworldNotes[] = {
  NOTE_C4, NOTE_C5, NOTE_A3, NOTE_A4,
  NOTE_AS3, NOTE_AS4, 0,
  0,
  NOTE_C4, NOTE_C5, NOTE_A3, NOTE_A4,
  NOTE_AS3, NOTE_AS4, 0,
  0,
  NOTE_F3, NOTE_F4, NOTE_D3, NOTE_D4,
  NOTE_DS3, NOTE_DS4, 0,
  0,
  NOTE_F3, NOTE_F4, NOTE_D3, NOTE_D4,
  NOTE_DS3, NOTE_DS4, 0,
  0, NOTE_DS4, NOTE_CS4, NOTE_D4,
  NOTE_CS4, NOTE_DS4,
  NOTE_DS4, NOTE_GS3,
  NOTE_G3, NOTE_CS4,
  NOTE_C4, NOTE_FS4, NOTE_F4, NOTE_E3, NOTE_AS4, NOTE_A4,
  NOTE_GS4, NOTE_DS4, NOTE_B3,
  NOTE_AS3, NOTE_A3, NOTE_GS3,
  0, 0, 0
};
//Underwolrd tempo
int marioUnderworldTempo[] = {
  12, 12, 12, 12,
  12, 12, 6,
  3,
  12, 12, 12, 12,
  12, 12, 6,
  3,
  12, 12, 12, 12,
  12, 12, 6,
  3,
  12, 12, 12, 12,
  12, 12, 6,
  6, 18, 18, 18,
  6, 6,
  6, 6,
  6, 6,
  18, 18, 18, 18, 18, 18,
  10, 10, 10,
  10, 10, 10,
  3, 3, 3
};
int marioUnderworldLength = sizeof(marioUnderworldNotes)/sizeof(int); 

// The melody array 
int takeOnMeNotes[] = {
  NOTE_FS5, NOTE_FS5, NOTE_D5, NOTE_B4, NOTE_B4, NOTE_E5, 
  NOTE_E5, NOTE_E5, NOTE_GS5, NOTE_GS5, NOTE_A5, NOTE_B5, 
  NOTE_A5, NOTE_A5, NOTE_A5, NOTE_E5, NOTE_D5, NOTE_FS5, 
  NOTE_FS5, NOTE_FS5, NOTE_E5, NOTE_E5, NOTE_FS5, NOTE_E5
};
// The note duration, 8 = 8th note, 4 = quarter note, etc.
int takeOnMeTempo[] = {
  8, 8, 8, 4, 4, 4, 
  4, 5, 8, 8, 8, 8, 
  8, 8, 8, 4, 4, 4, 
  4, 5, 8, 8, 8, 8
};
int takeOnMeLength = sizeof(takeOnMeNotes)/sizeof(int); 